<svg xmlns="http://www.w3.org/2000/svg" width="31.744" height="43.391" viewBox="0 0 31.744 43.391"><defs><style>.a{fill:#2e2e2e;}</style></defs><g transform="translate(-18.219 -8.9)"><path class="a" d="M45.061,30.982l-.308,1.746c0,.1,0,.154.1.205a.156.156,0,0,0,.205,0l1.592-.822,1.592.822h.1a.189.189,0,0,0,.154-.051.389.389,0,0,0,.1-.205L48.3,30.931,49.58,29.7c.051-.051.1-.154.051-.205q-.077-.154-.154-.154l-1.746-.257-.77-1.592c-.051-.154-.308-.154-.411,0l-.77,1.592-1.746.257a.136.136,0,0,0-.154.154c-.051.1,0,.154.051.205Z" transform="translate(-12.473 -8.988)"/><path class="a" d="M18.98,48.594l6.162-3.184,2.413,6.522a.569.569,0,0,0,.462.359h0a.52.52,0,0,0,.462-.308l5.6-14.43,5.6,14.43a.449.449,0,0,0,.462.308h0a.493.493,0,0,0,.462-.359l2.465-6.522,6.162,3.184a.551.551,0,0,0,.565-.051.58.58,0,0,0,.154-.565L43.269,30.673a12.7,12.7,0,0,0,3.646-8.935,12.838,12.838,0,0,0-25.675,0,12.652,12.652,0,0,0,3.7,8.986l-6.676,17.2a.486.486,0,0,0,.154.565C18.518,48.646,18.774,48.646,18.98,48.594Zm9.038,1.695-2.105-5.6,4.159-10.732a12.5,12.5,0,0,0,3.954.616h.051Zm12.17,0L34.642,36.065l.616-1.541a17.191,17.191,0,0,0,2.824-.565l4.159,10.732Zm3.03-5.957L39.058,33.6A12.107,12.107,0,0,0,42.5,31.443l6.059,15.611ZM34.077,9.978a11.811,11.811,0,1,1,0,23.621,11.538,11.538,0,0,1-4.005-.719.05.05,0,0,1-.051-.051h-.051A11.791,11.791,0,0,1,34.077,9.978Zm-8.37,21.516A12.391,12.391,0,0,0,29.147,33.6L24.988,44.332,19.7,47.054Z"/><path class="a" d="M31.857,30.6a.4.4,0,0,0,.1.411.634.634,0,0,0,.411.205l1.746-.051.257,1.746a.386.386,0,0,0,.257.359.5.5,0,0,0,.462.051l1.643-.616.822,1.541c.051.154.205.205.359.257a.4.4,0,0,0,.411-.1l1.335-1.13L41,34.4a.433.433,0,0,0,.359.1h.1c.154-.051.308-.1.359-.257l.822-1.541,1.643.616a.5.5,0,0,0,.462-.051A.594.594,0,0,0,45,32.91l.257-1.746,1.746.051a.467.467,0,0,0,.411-.205.4.4,0,0,0,.1-.411l-.359-1.695L48.8,28.34a.463.463,0,0,0,.308-.308.5.5,0,0,0-.051-.462l-.924-1.489L49.47,25a.634.634,0,0,0,.205-.411.467.467,0,0,0-.205-.411l-1.335-1.13.924-1.489a.5.5,0,0,0,.051-.462.463.463,0,0,0-.308-.308l-1.643-.565.359-1.695a.4.4,0,0,0-.1-.411.765.765,0,0,0-.462-.205l-1.746.051-.257-1.746a.386.386,0,0,0-.257-.359.491.491,0,0,0-.462,0l-1.643.616-.822-1.541c-.051-.154-.205-.205-.359-.257a.4.4,0,0,0-.411.1l-1.335,1.13-1.335-1.13a.4.4,0,0,0-.411-.1c-.154.051-.308.1-.359.257l-.822,1.541-1.643-.616a.5.5,0,0,0-.462.051.594.594,0,0,0-.257.359l-.257,1.746-1.746-.1a.467.467,0,0,0-.411.205.4.4,0,0,0-.1.411l.359,1.695-1.643.565a.463.463,0,0,0-.308.308.5.5,0,0,0,.051.462l.924,1.489-1.335,1.078a.634.634,0,0,0-.205.411.467.467,0,0,0,.205.411l1.335,1.078-.924,1.489a.5.5,0,0,0-.051.462.463.463,0,0,0,.308.308l1.643.565ZM31.5,27.519l.822-1.335a.487.487,0,0,0-.1-.668l-1.232-.976,1.232-.976a.487.487,0,0,0,.1-.668L31.5,21.562l1.489-.514a.5.5,0,0,0,.359-.565l-.308-1.541,1.541.051h0a.553.553,0,0,0,.514-.411l.257-1.541,1.438.565A.475.475,0,0,0,37.4,17.4l.77-1.386,1.181,1.027a.54.54,0,0,0,.668,0L41.2,16.016l.77,1.386a.494.494,0,0,0,.616.205l1.438-.565.257,1.541a.46.46,0,0,0,.514.411l1.541-.051-.308,1.541a.473.473,0,0,0,.359.565l1.489.514L47.057,22.9a.487.487,0,0,0,.1.668l1.232.976-1.232.976a.487.487,0,0,0-.1.668l.822,1.335-1.489.514a.5.5,0,0,0-.359.565l.308,1.541L44.8,30.086a.553.553,0,0,0-.514.411l-.257,1.541-1.438-.565a.475.475,0,0,0-.616.205l-.822,1.438L39.97,32.089a.433.433,0,0,0-.359-.1.742.742,0,0,0-.359.1L38.07,33.116,37.4,31.781a.494.494,0,0,0-.616-.205l-1.438.565L35.092,30.6a.5.5,0,0,0-.514-.411l-1.541.051.308-1.541a.473.473,0,0,0-.359-.565Z" transform="translate(-5.585 -2.803)"/></g></svg>