<svg xmlns="http://www.w3.org/2000/svg" width="53.575" height="50.565" viewBox="0 0 53.575 50.565"><defs><style>.a{fill:#d8e8d2;}.b,.c{fill:#2e2e2e;stroke:#2e2e2e;}.b{stroke-width:0.25px;}.c{stroke-width:0.15px;}</style></defs><g transform="translate(-880.184 -285.16)"><g transform="translate(880.184 285.16)"><path class="a" d="M23.26.019C40.135.567,50.408,11.664,50.408,24.826S42.875,47.163,29.714,47.163,1.395,39,.135,24.826,6.384-.528,23.26.019Z" transform="matrix(0.998, 0.07, -0.07, 0.998, 3.29, 0)"/></g><g transform="translate(895.635 296.389)"><path class="b" d="M32.687,10.485C30.741,6.4,25.637,4.958,21.83,5.663c-3.5.677-6.148,2.538-7.05,4.991a9.66,9.66,0,0,0-.536,3.976,2.171,2.171,0,0,0,.2.818c.085.169-.028.367-.254.677a.59.59,0,0,0-.113.169c-.141.2-.282.423-.423.62s-.282.423-.423.62a8.976,8.976,0,0,0-.733,1.241l-.056.056a1.189,1.189,0,0,0-.2.818c-.028.479.733.761,1.325,1.015a2.236,2.236,0,0,1,.254.113,3.994,3.994,0,0,1-.2.62,2.81,2.81,0,0,1-.113.31c-.056.282.141.536.479.7a.379.379,0,0,0-.169.2c-.113.254.085.451.31.649.085.085.31.282.31.338a.284.284,0,0,0-.028.085q-.888,1.9.169,2.538a6.846,6.846,0,0,0,3.356.761,1.413,1.413,0,0,1,1.213.733,4.768,4.768,0,0,1-.113,2.594.29.29,0,0,0,.2.338h.056a.271.271,0,0,0,.254-.2,5.127,5.127,0,0,0,.085-2.9,1.355,1.355,0,0,0-.479-.649,9.394,9.394,0,0,0,3.5-1.3c.592-.367,1.41-.959,1.41-1.748a.282.282,0,1,0-.564,0c0,.564-.874,1.128-1.156,1.3a8.534,8.534,0,0,1-4.174,1.3,6.44,6.44,0,0,1-3.356-.677c-.423-.254-.395-.874.056-1.833a1.942,1.942,0,0,0,.085-.226c.056-.31-.226-.592-.479-.818l-.085-.085c.169-.113.367-.254.31-.508a.418.418,0,0,0-.31-.31.572.572,0,0,1-.338-.2.375.375,0,0,1,.085-.2c.226-.592.367-1.015.085-1.213a3.137,3.137,0,0,0-.451-.226,2.955,2.955,0,0,1-.987-.508l.028-.056-.028-.085c-.028-.085.113-.338.169-.423L12.975,19a13.073,13.073,0,0,1,.705-1.184,4.637,4.637,0,0,0,.395-.62c.141-.2.282-.423.423-.62.028-.056.085-.113.113-.169a1.162,1.162,0,0,0,.282-1.241,1.435,1.435,0,0,1-.113-.62,9.112,9.112,0,0,1,.508-3.751c.846-2.284,3.328-4,6.655-4.625,3.581-.649,8.4.705,10.237,4.54a8.637,8.637,0,0,1,.677,4.85,8.308,8.308,0,0,1-1.777,4.117,7.243,7.243,0,0,0-1.748,3.469,26.222,26.222,0,0,0,.677,7.078l.028.169a.275.275,0,0,0,.282.226h.056a.279.279,0,0,0,.226-.31l-.028-.169a25.216,25.216,0,0,1-.677-6.909,6.893,6.893,0,0,1,1.636-3.187,8.96,8.96,0,0,0,1.889-4.371A9.022,9.022,0,0,0,32.687,10.485Z" transform="translate(-12.219 -5.491)"/><path class="c" d="M41.364,17.591c.395-1.3.113-2.933-1.1-3.5a2.963,2.963,0,0,0-1.382-2.059h0c-.028,0-.028-.028-.056-.028a5.04,5.04,0,0,0-3.384-1.692h-.2a5.988,5.988,0,0,0-5.5.479h0a.5.5,0,0,0-.113.141,3.346,3.346,0,0,0-2.594.62c-.479.31-1.015.79-1.072,1.213-.028,0-.028.028-.056.028h-.028a2.771,2.771,0,0,0-.987,2.848v.028a1.241,1.241,0,0,0,.423.733,2.888,2.888,0,0,0,.987,2.087,2.8,2.8,0,0,0,1.946.564.614.614,0,0,0,.141.226,2.066,2.066,0,0,0,.592.451,10.353,10.353,0,0,0,1.438.761,2.4,2.4,0,0,0,1.213.226,2.266,2.266,0,0,0,.564-.141h.028a2.248,2.248,0,0,0,.959.9,4.5,4.5,0,0,0,.649.282,2.3,2.3,0,0,1,.649.31,7.338,7.338,0,0,1,.874.7l.085.085c.141.141.367.31.395.479,0,.085.056.113.141.113h.028c.085,0,.141-.085.113-.141a1.2,1.2,0,0,0-.479-.649l-.141-.085a11.367,11.367,0,0,0-.9-.733,4.016,4.016,0,0,0-.705-.338,2.877,2.877,0,0,1-.592-.254c-.282-.169-.846-.508-.9-.9h0c0-.028,0-.056-.028-.056a2.392,2.392,0,0,1,.677-.733c.169-.113.31-.2.451-.282h0a1.33,1.33,0,0,1,.423-.169,1.162,1.162,0,0,1,.62.028,2.177,2.177,0,0,0,.423.056,3,3,0,0,0,1.354-.338,6.6,6.6,0,0,1,.677-.254,3.135,3.135,0,0,1,1.438.085l.338.085h0a4.98,4.98,0,0,0,.564.113h.028a4.462,4.462,0,0,1,.649.169,2.694,2.694,0,0,1-1.41,1.777,3.454,3.454,0,0,1-2.369.733c-.028-.028-.056-.028-.085-.056s-.028-.028-.056-.028A2.608,2.608,0,0,1,35.273,21a2.4,2.4,0,0,1-.705-1.664.141.141,0,1,0-.282,0,2.7,2.7,0,0,0,.79,1.861,2.458,2.458,0,0,0,.874.508.214.214,0,0,0,.113.056,3.374,3.374,0,0,1,1.156,2.594c-.028.085.028.141.113.169h.028a.187.187,0,0,0,.141-.113,3.5,3.5,0,0,0-.959-2.566,4.845,4.845,0,0,0,2.171-.818c.564-.367,1.523-1.128,1.523-2.115V18.86a1.686,1.686,0,0,0,1.128-1.269ZM40.18,18.662c-.028,0-.056.028-.085.056-.2-.028-.423-.056-.649-.085a3.279,3.279,0,0,1-.508-.113h-.085c-.677-.169-.733-.31-.733-.338a.061.061,0,0,0-.056-.056c-.62-.479-.846-.733-.536-1.382a.145.145,0,1,0-.254-.141c-.423.818-.028,1.213.564,1.692h0a2.076,2.076,0,0,0-.931.028,5.249,5.249,0,0,0-.705.282,3.262,3.262,0,0,1-1.241.338,1.9,1.9,0,0,1-.395-.056,1.579,1.579,0,0,0-.733-.028,3.44,3.44,0,0,0-.479.2c-.705.085-1.213.028-1.354-.169a.141.141,0,1,0-.226.169,1.317,1.317,0,0,0,1.015.31h.056a2.336,2.336,0,0,0-.79.874,1.95,1.95,0,0,1-.536.282,7.734,7.734,0,0,1-2.482-.931,4.354,4.354,0,0,1,.818-2.538c.056-.056,2.707-1.156.056-.338l-.028.028a3.3,3.3,0,0,1,.31-1.889,1.133,1.133,0,0,0,.141-.705c0-.226,0-.367.113-.479a2.223,2.223,0,0,0,1.607-.931,1.27,1.27,0,0,0,.254-1.1.134.134,0,1,0-.254.085,1.087,1.087,0,0,1-.226.874,1.957,1.957,0,0,1-1.41.79,1.666,1.666,0,0,0-2.256.677.187.187,0,0,0,.056.2.1.1,0,0,1,.056.028.147.147,0,0,0,.113-.056,1.351,1.351,0,0,1,1.748-.62.925.925,0,0,0-.113.536,1.131,1.131,0,0,1-.085.536A3.412,3.412,0,0,0,29.6,16.97,4.937,4.937,0,0,0,28.364,19a.155.155,0,0,0-.141-.085,2.689,2.689,0,0,1-1.833-.479,2.765,2.765,0,0,1-.9-1.946v-.028a.1.1,0,0,1,.056.028,1.189,1.189,0,0,0,.536.085.774.774,0,0,1,.367.056.687.687,0,0,1,.338.592.141.141,0,0,0,.282,0,.952.952,0,0,0-.508-.846,1.4,1.4,0,0,0-.479-.056,1.1,1.1,0,0,1-.423-.056,1.412,1.412,0,0,1-.62-.536,2.5,2.5,0,0,1,.677-2.341,1.342,1.342,0,0,0,.395,1.128,1.451,1.451,0,0,0,.479.226.648.648,0,0,1,.479.338c.113.254.62.931,1.1,1.015h.113a.594.594,0,0,0,.367-.141.14.14,0,0,0-.2-.2.219.219,0,0,1-.226.056c-.367-.056-.79-.649-.9-.874a.872.872,0,0,0-.649-.479.989.989,0,0,1-.395-.169c-.254-.2-.338-.564-.282-1.156.028,0,.028-.028.056-.028a.147.147,0,0,0,.056-.113c0-.254.395-.705.959-1.043a3.123,3.123,0,0,1,2.453-.564.964.964,0,0,0,.169.931.1.1,0,0,0,.085.028.214.214,0,0,0,.113-.056.139.139,0,0,0-.028-.2,1.059,1.059,0,0,1,0-.959,5.811,5.811,0,0,1,5.217-.395.1.1,0,0,0,.085.028H35.3c.564.931.592,1.523.085,2.03a.136.136,0,0,0,0,.2.1.1,0,0,0,.085.028c.028,0,.085,0,.085-.028a1.675,1.675,0,0,0,.056-2.2,4.956,4.956,0,0,1,2.876,1.495,2.258,2.258,0,0,0-1.184.846,2.051,2.051,0,0,0-.2.818c0,.085-.028.169-.028.254-.056.282-.113.564-.169.79a2,2,0,0,1-.846,1.241,1.254,1.254,0,0,1-.564,0,1.04,1.04,0,0,0-.959.141c-.028.028-.028.056-.056.085-.028.254.169.508.282.113.169-.141.423-.085.7-.056a1.29,1.29,0,0,0,.733-.028,2.232,2.232,0,0,0,.987-1.41,5.8,5.8,0,0,0,.2-.818.96.96,0,0,0,.028-.282,1.852,1.852,0,0,1,.169-.7l.5-.467.542-.266.056-.028c.028,0,.056-.028.085-.028a2.653,2.653,0,0,1,1.184,1.861.155.155,0,0,0,.085.141c1.1.451,1.3,1.861,1.1,2.876a1.96,1.96,0,0,0-1.41-.818c.2-.733-.479-1.269-.9-1.466a.126.126,0,0,0-.113.226c.028.028.987.451.7,1.213-.31.028-.536.113-.62.282a.145.145,0,0,0,.254.141c.028-.085.226-.141.479-.169h.028a1.661,1.661,0,0,1,1.466.931A1.288,1.288,0,0,1,40.18,18.662Z" transform="translate(-21.263 -8.62)"/></g></g></svg>