<svg xmlns="http://www.w3.org/2000/svg" width="35" height="35" viewBox="0 0 35 35"><defs><style>.a{fill:#2e2e2e;}</style></defs><g transform="translate(21.227 -39.814)"><g transform="translate(-21.227 39.814)"><path class="a" d="M49.269,33.321A16.01,16.01,0,0,1,20.888,43.48a15.88,15.88,0,0,1-3.581-8.851A16.016,16.016,0,0,1,49.1,30.884a16.622,16.622,0,0,1,.172,2.437.748.748,0,0,0,1.5,0,17.522,17.522,0,0,0-3.207-10.1,17.741,17.741,0,0,0-8.291-6.347A17.505,17.505,0,0,0,25.98,49.236a17.793,17.793,0,0,0,10.774,1.241A17.494,17.494,0,0,0,50.547,36.064a18.578,18.578,0,0,0,.217-2.736A.748.748,0,0,0,49.269,33.321Z" transform="translate(-15.764 -15.814)"/><g transform="translate(16.2 2.68)"><circle class="a" cx="0.577" cy="0.577" r="0.577" transform="translate(0.721 0.721)"/><path class="a" d="M232.95,54.3c.007-.072.029-.072-.007-.007.007-.014.094-.144.043-.094s.058-.029.058-.036c.05-.014.043-.014-.029.007.022-.007.043-.007.065-.014.072.007.065.029.007-.007.022.014.151.1.094.043s.029.058.036.058h0c-.014-.05-.014-.036.007.036,0,.072-.029.072.007.007a.936.936,0,0,1-.065.115c.065-.094-.007-.014-.043.014h0c.043-.007.036-.014-.007,0-.058-.014-.137-.036-.043.007a.932.932,0,0,1-.115-.065c.079.058.029,0-.014-.043h0c.029.065.022.058.007-.022a.721.721,0,0,0,1.441,0,1.33,1.33,0,1,0,.007,0,.728.728,0,0,0-.721-.721A.744.744,0,0,0,232.95,54.3Z" transform="translate(-231.796 -53)"/><g transform="translate(0 27.058)"><circle class="a" cx="0.577" cy="0.577" r="0.577" transform="translate(0.721 0.721)"/><path class="a" d="M232.95,412.3c.007-.072.029-.072-.007-.007.007-.014.094-.144.043-.094s.058-.029.058-.036c.05-.014.043-.014-.029.007.022-.007.043-.007.065-.014.072.007.065.029.007-.007.022.014.151.1.094.043s.029.058.036.058h0c-.014-.05-.014-.036.007.036,0,.072-.029.072.007.007a.936.936,0,0,1-.065.115c.065-.094-.007-.014-.043.014h0c.043-.007.036-.014-.007,0-.058-.014-.137-.036-.043.007a.928.928,0,0,1-.115-.065c.079.058.029,0-.014-.043h0c.029.065.022.058.007-.022a.721.721,0,0,0,1.441,0,1.33,1.33,0,1,0,.007,0,.728.728,0,0,0-.721-.721A.744.744,0,0,0,232.95,412.3Z" transform="translate(-231.796 -411)"/></g></g><g transform="translate(7.077 7.087)"><g transform="translate(18.249)"><circle class="a" cx="0.577" cy="0.577" r="0.577" transform="translate(0.719 0.719)"/><path class="a" d="M359.62,106.62c-.058.05-.043.043.036-.029-.072.036-.051.029.05-.014-.144.05.166-.007.014,0-.079-.007-.058,0,.058.007-.072-.022-.058-.014.043.029-.123-.065.1.108-.007.007-.05-.058-.043-.043.029.036-.036-.072-.029-.05.014.05-.043-.13,0,.159,0,.014.007-.079,0-.058-.007.058.022-.058.014-.058-.007,0s-.029.058,0,.007c-.072.079-.079.094-.029.036.108-.108-.115.072.007.007-.1.043-.123.05-.043.029-.115.014-.137.014-.058.007.151.007-.159-.05-.014,0-.1-.05-.115-.05-.05-.014-.079-.072-.094-.079-.036-.029.108.115-.079-.13-.007.007-.043-.1-.05-.123-.029-.043-.014-.115-.014-.137-.007-.058,0,.137.05-.151,0-.014.05-.1.05-.115.014-.05.072-.087.079-.1.029-.043a.719.719,0,0,0,1.016,1.016,1.3,1.3,0,1,0-1.838,0,1.318,1.318,0,0,0,1.838,0,.718.718,0,0,0,0-1.016A.745.745,0,0,0,359.62,106.62Z" transform="translate(-358.425 -105.425)"/></g><g transform="translate(0 18.249)"><circle class="a" cx="0.577" cy="0.577" r="0.577" transform="translate(0.719 0.719)"/><path class="a" d="M106.42,359.82c-.058.05-.043.043.036-.029-.072.036-.05.029.05-.014-.144.05.166-.007.014,0-.079-.007-.058,0,.058.007-.072-.022-.058-.014.043.029-.123-.065.1.108-.007.007-.05-.058-.043-.043.029.036-.036-.072-.029-.05.014.05-.043-.13,0,.159,0,.014.007-.079,0-.058-.007.058.022-.058.014-.058-.007,0s-.029.058,0,.007c-.072.079-.079.094-.029.036.108-.108-.115.072.007.007-.1.043-.123.05-.043.029-.115.014-.137.014-.058.007.151.007-.159-.05-.014,0-.1-.05-.115-.05-.05-.014-.079-.072-.094-.079-.036-.029.108.115-.079-.13-.007.007-.043-.1-.05-.123-.029-.043-.014-.115-.014-.137-.007-.058,0,.137.05-.151,0-.014.05-.1.05-.115.014-.05.072-.086.079-.1.029-.043a.719.719,0,0,0,1.016,1.016,1.3,1.3,0,1,0-1.838,0,1.318,1.318,0,0,0,1.838,0,.718.718,0,0,0,0-1.016A.731.731,0,0,0,106.42,359.82Z" transform="translate(-105.225 -358.625)"/></g></g><g transform="translate(7.077 7.095)"><circle class="a" cx="0.577" cy="0.577" r="0.577" transform="translate(0.719 0.712)"/><path class="a" d="M106.42,106.913c.05.058.043.043-.029-.036.036.072.029.05-.014-.05.05.144-.007-.166,0-.014-.007.079,0,.058.007-.058-.022.072-.014.058.029-.043-.065.123.108-.1.007.007-.058.05-.043.043.036-.029-.072.036-.05.029.05-.014-.13.043.159,0,.014,0-.079-.007-.058,0,.058.007-.058-.022-.058-.014,0,.007s.058.029.007,0c.079.072.094.079.036.029-.108-.108.072.115.007-.007.043.1.05.123.029.043.014.115.014.137.007.058.007-.151-.05.159,0,.014-.05.1-.05.115-.014.05-.072.079-.079.094-.029.036.115-.108-.13.079.007.007-.1.043-.123.05-.043.029-.115.014-.137.014-.058.007.137,0-.151-.05-.014,0-.1-.05-.115-.05-.05-.014-.086-.072-.1-.079-.043-.029a.719.719,0,1,0,1.016-1.016,1.3,1.3,0,1,0,0,1.838,1.319,1.319,0,0,0,0-1.838.718.718,0,0,0-1.016,0A.731.731,0,0,0,106.42,106.913Z" transform="translate(-105.225 -105.524)"/><g transform="translate(18.249 18.249)"><circle class="a" cx="0.577" cy="0.577" r="0.577" transform="translate(0.719 0.712)"/><path class="a" d="M359.62,360.113c.05.058.043.043-.029-.036.036.072.029.05-.014-.05.05.144-.007-.166,0-.014-.007.079,0,.058.007-.058-.022.072-.014.058.029-.043-.065.122.108-.1.007.007-.058.05-.043.043.036-.029-.072.036-.051.029.05-.014-.13.043.159,0,.014,0-.079-.007-.058,0,.058.007-.058-.022-.058-.014,0,.007s.058.029.007,0c.079.072.094.079.036.029-.108-.108.072.115.007-.007.043.1.05.122.029.043.014.115.014.137.007.058.007-.151-.05.159,0,.014-.05.1-.05.115-.014.05-.072.079-.079.094-.029.036.115-.108-.13.079.007.007-.1.043-.123.05-.043.029-.115.014-.137.014-.058.007.137,0-.151-.05-.014,0-.1-.05-.115-.05-.05-.014-.094-.072-.1-.086-.043-.029a.719.719,0,0,0,1.016-1.016,1.3,1.3,0,1,0,0,1.838,1.318,1.318,0,0,0,0-1.838.718.718,0,0,0-1.016,0A.731.731,0,0,0,359.62,360.113Z" transform="translate(-358.425 -358.724)"/></g></g><g transform="translate(2.669 16.201)"><circle class="a" cx="0.577" cy="0.577" r="0.577" transform="translate(0.721 0.729)"/><path class="a" d="M54.1,233.337c-.072-.007-.072-.029-.007.007-.014-.007-.144-.094-.094-.043s-.029-.058-.036-.058c-.014-.05-.014-.043.007.029-.007-.022-.007-.043-.014-.065.007-.072.029-.065-.007-.007.014-.022.1-.151.043-.094s.058-.029.058-.036h0c-.05.014-.036.014.036-.007.072,0,.072.029.007-.007a.928.928,0,0,1,.115.065c-.094-.065-.014.007.014.043h0c-.007-.043-.014-.036,0,.007-.014.058-.036.137.007.043a.93.93,0,0,1-.065.115c.058-.079,0-.029-.043.014h0c.065-.029.05-.029-.022-.007a.721.721,0,1,0,0-1.441,1.33,1.33,0,1,0,0-.007.728.728,0,0,0-.721.721A.739.739,0,0,0,54.1,233.337Z" transform="translate(-52.8 -231.887)"/><g transform="translate(27.062)"><circle class="a" cx="0.577" cy="0.577" r="0.577" transform="translate(0.721 0.729)"/><path class="a" d="M412.1,233.337c-.072-.007-.072-.029-.007.007-.014-.007-.144-.094-.094-.043s-.029-.058-.036-.058c-.014-.05-.014-.043.007.029-.007-.022-.007-.043-.014-.065.007-.072.029-.065-.007-.007.014-.022.1-.151.043-.094s.058-.029.058-.036h0c-.05.014-.036.014.036-.007.072,0,.072.029.007-.007a.927.927,0,0,1,.115.065c-.094-.065-.014.007.014.043h0c-.007-.043-.014-.036,0,.007-.014.058-.036.137.007.043a.926.926,0,0,1-.065.115c.058-.079,0-.029-.043.014h0c.065-.029.05-.029-.022-.007a.721.721,0,0,0,0-1.441,1.33,1.33,0,1,0,0-.007.728.728,0,0,0-.721.721A.739.739,0,0,0,412.1,233.337Z" transform="translate(-410.8 -231.887)"/></g></g><g transform="translate(11.295 9.402)"><g transform="translate(3.026)"><line y1="9.65" x2="9.65" transform="translate(0.72 0.719)"/><path class="a" d="M206.239,150.3l3.25-3.25,5.211-5.211,1.189-1.189a.719.719,0,0,0-1.016-1.016l-3.25,3.25-5.211,5.211-1.189,1.189c-.663.649.353,1.672,1.016,1.016Z" transform="translate(-205.007 -139.419)"/></g><g transform="translate(0 1.798)"><line x1="7.849" y1="7.849" transform="translate(0.719 0.724)"/><path class="a" d="M172.1,172.42l-6.876-6.876-.973-.973a.719.719,0,0,0-1.016,1.016l6.876,6.876.973.973a.719.719,0,0,0,1.016-1.016Z" transform="translate(-163.019 -164.359)"/></g></g></g></g></svg>