<svg xmlns="http://www.w3.org/2000/svg" width="56.267" height="55.881" viewBox="0 0 56.267 55.881"><defs><style>.a{fill:#f7c572;}.b,.c{fill:#2e2e2e;stroke:#2e2e2e;}.b{stroke-width:0.3px;}.c{stroke-width:0.5px;}</style></defs><g transform="translate(-325.341 -216.738)"><path class="a" d="M22.985-1.515C39.857-.967,48.975,10.713,48.81,22.1S42.193,44.6,28.166,46.709s-25.242-4-27.2-18.85S6.112-2.062,22.985-1.515Z" transform="matrix(0.174, 0.985, -0.985, 0.174, 371.626, 216.367)"/><g transform="translate(346.865 242.43) rotate(-47)"><path class="b" d="M260.238,122.062l-.259-.852a1.85,1.85,0,0,0-3.5,0l-.259.852a4.784,4.784,0,0,0-.133,2.217,2.085,2.085,0,0,0,1.074,1.453l-.29,6.478a1.276,1.276,0,0,0,.322.992,1.408,1.408,0,0,0,1.989.089q.047-.043.089-.089a1.259,1.259,0,0,0,.322-.965l-.291-6.505a2.084,2.084,0,0,0,1.072-1.452A4.783,4.783,0,0,0,260.238,122.062Zm-.661,2.076a1.278,1.278,0,0,1-.836.963.4.4,0,0,0-.261.4l.306,6.8a.466.466,0,0,1-.121.365.623.623,0,0,1-.876,0,.484.484,0,0,1-.119-.392l.3-6.777a.4.4,0,0,0-.261-.4,1.278,1.278,0,0,1-.836-.963,3.974,3.974,0,0,1,.111-1.84l.259-.852a1.045,1.045,0,0,1,1.96,0l.259.852A3.98,3.98,0,0,1,259.578,124.138Z" transform="translate(-256.012 -119.955)"/></g><g transform="translate(342 234)"><path class="c" d="M11.336,0A11.336,11.336,0,1,0,22.671,11.336,11.336,11.336,0,0,0,11.336,0Zm0,21.915a10.58,10.58,0,1,1,10.58-10.58A10.58,10.58,0,0,1,11.336,21.915Z"/></g><g transform="translate(353.23 252.592) rotate(139)"><path class="c" d="M340.386,134.188a.378.378,0,0,0-.532-.047h0a.378.378,0,0,0-.045.532,6.8,6.8,0,0,1-.4,9.2.378.378,0,0,0,.534.535A7.557,7.557,0,0,0,340.386,134.188Z" transform="translate(-339.295 -134.053)"/></g><g transform="translate(362.212 244.256) rotate(139)"><path class="c" d="M82.728,151.893a6.8,6.8,0,0,1-.683-8.8.378.378,0,1,0-.6-.454l-.007.009a7.557,7.557,0,0,0,.758,9.78.378.378,0,1,0,.535-.535Z" transform="translate(-79.989 -142.488)"/></g></g></svg>