<svg xmlns="http://www.w3.org/2000/svg" width="22.597" height="28.474" viewBox="0 0 22.597 28.474"><g transform="translate(-2.456 0.013)"><g transform="translate(2.456 -0.013)"><path d="M16.1,2.323l2.754,1.566a.465.465,0,0,0,.235.062.477.477,0,0,0,.236-.891L16.573,1.494a.477.477,0,1,0-.471.829Z" transform="translate(0.128 0.292)"/><path d="M14.91,3.123l4.078,2.32a.47.47,0,0,0,.236.062.477.477,0,0,0,.237-.891l-4.078-2.32a.477.477,0,0,0-.474.829Z" transform="translate(-0.102 0.446)"/><path d="M23.842,4.341a.478.478,0,0,0-.65.179C21.591,7.335,16.117,7.4,16.063,7.4c-.246,0-6.078.068-7.953,3.362s1.048,8.341,1.174,8.556c.027.047,2.771,4.779,1.167,7.6a.477.477,0,1,0,.829.474c1.874-3.3-1.048-8.342-1.174-8.557-.027-.047-2.771-4.779-1.167-7.6s7.074-2.881,7.129-2.881h0c.217-.039,6.072-.061,7.952-3.364A.476.476,0,0,0,23.842,4.341Z" transform="translate(-1.487 0.841)"/><circle cx="0.469" cy="0.469" r="0.469" transform="matrix(0.796, -0.606, 0.606, 0.796, 9.113, 19.706)"/><circle cx="0.469" cy="0.469" r="0.469" transform="translate(10.655 19.497) rotate(-43.233)"/><circle cx="0.469" cy="0.469" r="0.469" transform="translate(12.353 19.067) rotate(-52.41)"/><circle cx="0.469" cy="0.469" r="0.469" transform="translate(13.965 18.352) rotate(-67.245)"/><circle cx="0.469" cy="0.469" r="0.469" transform="translate(15.109 16.972) rotate(-60.364)"/><circle cx="0.469" cy="0.469" r="0.469" transform="matrix(0.918, -0.396, 0.396, 0.918, 15.655, 14.879)"/><circle cx="0.469" cy="0.469" r="0.469" transform="matrix(0.786, -0.618, 0.618, 0.786, 15.568, 13.248)"/><circle cx="0.469" cy="0.469" r="0.469" transform="matrix(0.678, -0.735, 0.735, 0.678, 15.16, 11.625)"/><circle cx="0.469" cy="0.469" r="0.469" transform="matrix(0.598, -0.802, 0.802, 0.598, 14.615, 10.221)"/><circle cx="0.469" cy="0.469" r="0.469" transform="matrix(0.2, -0.98, 0.98, 0.2, 13.21, 7.705)"/><circle cx="0.469" cy="0.469" r="0.469" transform="matrix(0.301, -0.954, 0.954, 0.301, 12.755, 6.131)"/><circle cx="0.469" cy="0.469" r="0.469" transform="translate(12.462 4.275) rotate(-63.315)"/><circle cx="0.469" cy="0.469" r="0.469" transform="translate(12.542 2.314) rotate(-48.478)"/><circle cx="0.469" cy="0.469" r="0.469" transform="translate(13.219 0.771) rotate(-55.363)"/><circle cx="0.469" cy="0.469" r="0.469" transform="matrix(0.796, -0.606, 0.606, 0.796, 5.959, 20.003)"/><circle cx="0.469" cy="0.469" r="0.469" transform="matrix(0.729, -0.685, 0.685, 0.729, 4.406, 20.35)"/><circle cx="0.469" cy="0.469" r="0.469" transform="matrix(0.61, -0.793, 0.793, 0.61, 2.719, 20.993)"/><circle cx="0.469" cy="0.469" r="0.469" transform="translate(1.195 22.037) rotate(-67.245)"/><circle cx="0.469" cy="0.469" r="0.469" transform="translate(0 23.267) rotate(-60.364)"/><path d="M14.831,4.556l2.754,1.566a.465.465,0,0,0,.235.062.477.477,0,0,0,.236-.891L15.3,3.727a.477.477,0,1,0-.471.829Z" transform="translate(-0.117 0.722)"/><path d="M9.849,19.719,7.1,18.154a.477.477,0,1,0-.471.829l2.753,1.565a.477.477,0,1,0,.471-.829Z" transform="translate(-1.699 3.504)"/><path d="M9.983,21.274,5.9,18.954a.477.477,0,1,0-.471.829L9.512,22.1a.477.477,0,1,0,.471-.829Z" transform="translate(-1.929 3.658)"/><path d="M8.578,21.953,5.825,20.387a.477.477,0,1,0-.471.829l2.754,1.565a.476.476,0,1,0,.47-.828Z" transform="translate(-1.944 3.934)"/><path d="M14.695,12.154a.47.47,0,0,0,.236.062.477.477,0,0,0,.237-.891L11.709,9.357a.477.477,0,1,0-.471.829Z" transform="translate(-0.81 1.808)"/><path d="M14.9,13.123l-4.449-2.531a.477.477,0,0,0-.471.829l4.45,2.531a.476.476,0,1,0,.47-.829Z" transform="translate(-1.052 2.046)"/><path d="M13.493,14.268,10.034,12.3a.477.477,0,0,0-.471.829L13.022,15.1a.477.477,0,1,0,.471-.829Z" transform="translate(-1.133 2.375)"/></g></g></svg>