<svg xmlns="http://www.w3.org/2000/svg" width="60.886" height="58.592" viewBox="0 0 60.886 58.592"><defs><style>.a{fill:#ffe77e;}.b{fill:#2e2e2e;}</style></defs><g transform="translate(-110.34 -216.982)"><path class="a" d="M23.255.019C40.127.567,50.4,11.662,50.4,24.821s-7.531,22.333-20.69,22.333S1.394,39,.135,24.821,6.383-.528,23.255.019Z" transform="matrix(-0.966, 0.259, -0.259, -0.966, 171.226, 262.53)"/><g transform="translate(134.411 239.411)"><path class="b" d="M86.249,77.11a6.5,6.5,0,0,0-4.57-1.91,6.36,6.36,0,0,0-4.57,1.91,6.479,6.479,0,0,0,4.57,11.049,6.36,6.36,0,0,0,4.57-1.91,6.5,6.5,0,0,0,1.91-4.57A6.36,6.36,0,0,0,86.249,77.11Zm-1.228,7.912a4.776,4.776,0,1,1,1.364-3.342A4.717,4.717,0,0,1,85.021,85.021Z" transform="translate(-75.2 -75.2)"/></g><g transform="translate(149.382 245.003)"><path class="b" d="M254.312,140.8h-2.626a.887.887,0,1,0,0,1.773h2.626a.887.887,0,1,0,0-1.773Z" transform="translate(-250.8 -140.8)"/></g><g transform="translate(140.004 254.381)"><path class="b" d="M141.687,250.8a.9.9,0,0,0-.887.887v2.626a.887.887,0,0,0,1.773,0v-2.626A.9.9,0,0,0,141.687,250.8Z" transform="translate(-140.8 -250.8)"/></g><g transform="translate(146.636 251.636)"><path class="b" d="M221.959,220.731l-1.876-1.876a.868.868,0,0,0-1.228,1.228l1.876,1.876a.868.868,0,0,0,1.228-1.228Z" transform="translate(-218.6 -218.6)"/></g><g transform="translate(140.004 233)"><path class="b" d="M141.687,0a.9.9,0,0,0-.887.887V3.512a.887.887,0,1,0,1.773,0V.887A.9.9,0,0,0,141.687,0Z" transform="translate(-140.8)"/></g><g transform="translate(146.67 236.529)"><path class="b" d="M222.359,41.656a.864.864,0,0,0-1.228,0l-1.876,1.876a.868.868,0,1,0,1.228,1.228l1.876-1.876A.864.864,0,0,0,222.359,41.656Z" transform="translate(-219 -41.4)"/></g><g transform="translate(128 245.003)"><path class="b" d="M3.512,140.8H.887a.9.9,0,0,0-.887.887.88.88,0,0,0,.887.887H3.512a.887.887,0,0,0,0-1.773Z" transform="translate(0 -140.8)"/></g><g transform="translate(131.495 251.636)"><path class="b" d="M44.359,218.856a.864.864,0,0,0-1.228,0l-1.876,1.876a.868.868,0,0,0,1.228,1.228l1.876-1.876A.864.864,0,0,0,44.359,218.856Z" transform="translate(-41 -218.6)"/></g><g transform="translate(131.495 236.529)"><path class="b" d="M44.359,43.531l-1.876-1.876a.868.868,0,0,0-1.228,1.228l1.876,1.876a.868.868,0,0,0,1.228-1.228Z" transform="translate(-41 -41.4)"/></g></g></svg>