<svg xmlns="http://www.w3.org/2000/svg" width="50.399" height="47.155" viewBox="0 0 50.399 47.155"><defs><style>.a{fill:#cfe2ff;}.b{fill:#2e2e2e;stroke:#2e2e2e;stroke-width:0.25px;}</style></defs><g transform="translate(-433.583 -221.701)"><path class="a" d="M23.255.019C40.127.567,50.4,11.662,50.4,24.821s-7.531,22.333-20.69,22.333S1.394,39,.135,24.821,6.383-.528,23.255.019Z" transform="translate(483.982 268.856) rotate(180)"/><path class="b" d="M28.336,137.979H26.321v-2.12a1.163,1.163,0,0,0-1.162-1.162H23.794a1.156,1.156,0,0,0-.312.044v-.428a1.163,1.163,0,0,0-1.162-1.162H20.064a1.163,1.163,0,0,0-1.162,1.162v3.666H9.858v-3.666A1.163,1.163,0,0,0,8.7,133.151H6.441a1.163,1.163,0,0,0-1.162,1.162v.428a1.156,1.156,0,0,0-.312-.044H3.6a1.163,1.163,0,0,0-1.162,1.162v2.12H.425A.425.425,0,0,0,0,138.4v3.3a.425.425,0,0,0,.425.425H2.44v2.12A1.163,1.163,0,0,0,3.6,145.407H4.967a1.159,1.159,0,0,0,.312-.044v.428a1.163,1.163,0,0,0,1.162,1.162H8.7a1.163,1.163,0,0,0,1.162-1.162v-3.666H18.9v3.666a1.163,1.163,0,0,0,1.162,1.162H22.32a1.163,1.163,0,0,0,1.162-1.162v-.428a1.157,1.157,0,0,0,.312.044h1.366a1.163,1.163,0,0,0,1.162-1.162v-2.12h2.015a.425.425,0,0,0,.425-.425v-3.3A.425.425,0,0,0,28.336,137.979Zm-25.9,3.3H.85v-2.445H2.44Zm2.839,2.971a.312.312,0,0,1-.312.312H3.6a.312.312,0,0,1-.312-.312v-8.386a.312.312,0,0,1,.312-.312H4.967a.312.312,0,0,1,.312.312ZM9.008,138.4v7.387a.312.312,0,0,1-.312.312H6.441a.312.312,0,0,1-.312-.312V134.313A.312.312,0,0,1,6.441,134H8.7a.312.312,0,0,1,.312.312Zm9.894,2.87H9.858v-2.445H18.9Zm3.729-5.416v9.932a.312.312,0,0,1-.312.312H20.064a.312.312,0,0,1-.312-.312V134.313a.312.312,0,0,1,.312-.312H22.32a.312.312,0,0,1,.312.312Zm2.839,2.546v5.841a.312.312,0,0,1-.312.312H23.794a.312.312,0,0,1-.312-.312v-8.386a.312.312,0,0,1,.312-.312h1.366a.312.312,0,0,1,.312.312Zm2.44,2.87H26.321v-2.445h1.589Z" transform="translate(515.977 117.188) rotate(30)"/></g></svg>