<svg xmlns="http://www.w3.org/2000/svg" xmlns:xlink="http://www.w3.org/1999/xlink" width="1366" height="174" viewBox="0 0 1366 174"><defs><style>.a{fill:#fff;}.b{clip-path:url(#a);}.c{fill:rgba(253,205,198,0.31);}.d{fill:#d8e8d2;opacity:0.656;}.e{fill:#d7e0ee;}.e,.f{opacity:0.521;}.f{fill:#f7c572;}</style><clipPath id="a"><rect class="a" width="1366" height="174" transform="translate(0 594)"/></clipPath></defs><g class="b" transform="translate(0 -594)"><path class="c" d="M895.972,919.19c-4.072,8.3-6.718,17.707-5.214,26.862,1.653,10.068,8.27,18.824,16.58,24.489,15.62,10.647,36.205,10.86,54.315,5.795,21.031-5.881,41.155-19.569,49.349-40.219,12.265-30.908-7.472-57.643-37.463-59.771C942.38,874.134,910.276,890.036,895.972,919.19Z" transform="translate(412.669 -183.143)"/><path class="d" d="M90.867.075c65.926,2.14,106.059,45.493,106.059,96.909s-29.427,87.264-80.843,87.264S5.448,152.375.529,96.985,24.941-2.064,90.867.075Z" transform="matrix(0.998, 0.07, -0.07, 0.998, -70.453, 594.067)"/><path class="e" d="M36.482.03C62.951.889,79.064,18.3,79.064,38.939S67.249,73.974,46.606,73.974,2.187,61.177.212,38.939,10.014-.829,36.482.03Z" transform="translate(1219.294 709.407) rotate(-60)"/><path class="f" d="M15.438.013c11.2.364,18.019,7.729,18.019,16.465S28.458,31.3,19.722,31.3.926,25.888.09,16.478,4.237-.351,15.438.013Z" transform="translate(1302.562 646.633) rotate(-45)"/></g></svg>