<svg xmlns="http://www.w3.org/2000/svg" width="66.036" height="67.224" viewBox="0 0 66.036 67.224"><defs><style>.a{fill:#ffe77e;}.b{fill:#2e2e2e;stroke:#ffe77e;stroke-width:0.25px;}</style></defs><g transform="translate(-647.765 -211.666)"><path class="a" d="M23.255.019C40.127.567,50.4,11.662,50.4,24.821s-7.531,22.333-20.69,22.333S1.394,39,.135,24.821,6.383-.528,23.255.019Z" transform="matrix(-0.5, 0.866, -0.866, -0.5, 713.802, 235.243)"/><g transform="translate(669 234)"><path class="b" d="M20.641,3.541a12.091,12.091,0,1,0-17.1,17.1,12.091,12.091,0,1,0,17.1-17.1Zm-8.55,19.2A10.652,10.652,0,1,1,22.743,12.091,10.664,10.664,0,0,1,12.091,22.743Z" transform="translate(0 0)"/></g><g transform="translate(673.99 242.014)"><path class="b" d="M110.135,170.564a3.026,3.026,0,0,0-4.275,0,.72.72,0,1,0,1.018,1.018,1.585,1.585,0,0,1,2.239,0,.72.72,0,1,0,1.018-1.018Z" transform="translate(-105.65 -169.68)"/></g><g transform="translate(683.496 242.014)"><path class="b" d="M311.4,170.564a3.026,3.026,0,0,0-4.275,0,.72.72,0,1,0,1.018,1.018,1.585,1.585,0,0,1,2.239,0,.72.72,0,0,0,1.018-1.018Z" transform="translate(-306.912 -169.68)"/></g><g transform="translate(673.99 246.619)"><path class="b" d="M119.134,267.175H106.371a.72.72,0,0,0-.72.72,7.1,7.1,0,0,0,14.2,0A.72.72,0,0,0,119.134,267.175Zm-6.382,6.382a5.67,5.67,0,0,1-5.616-4.942h11.233A5.67,5.67,0,0,1,112.752,273.557Z" transform="translate(-105.651 -267.175)"/></g></g></svg>