<svg xmlns="http://www.w3.org/2000/svg" width="27.128" height="42.874" viewBox="0 0 27.128 42.874"><defs><style>.a{fill:#2e2e2e;}.b{fill:#fff;}</style></defs><g transform="translate(0.003 -0.003)"><g transform="translate(-0.003 0.003)"><path class="a" d="M92.666,338.739a3.963,3.963,0,0,0-1.323,2.122c-.259.926-.444,1.873-.673,2.808a6.033,6.033,0,0,1-2.908,4.2c-.136.089-.265.186-.4.28a4.063,4.063,0,0,0-1.765,2.823,10.422,10.422,0,0,0-.192,4.012,18.434,18.434,0,0,0,.573,2.805h-7.87a13.122,13.122,0,0,1,.2-3.073c.18-.727.424-1.436.65-2.15a12.364,12.364,0,0,1,4.77-5.837c1.024-.463,1.967-1.074,2.976-1.565.079-.038.048-.077.038-.125a6.218,6.218,0,0,0,.661-.472,4.494,4.494,0,0,0,1.395-2.525,10.114,10.114,0,0,1,1.218-3.024,10.562,10.562,0,0,1,1.421-1.2,4.044,4.044,0,0,1,2.073-.6A4.252,4.252,0,0,1,92.666,338.739Z" transform="translate(-72.939 -314.918)"/><path class="a" d="M3.965,26.331a2.154,2.154,0,0,0-.217-.837,2.6,2.6,0,0,1-.108-.8c.006-.223.078-.375.319-.417a1.058,1.058,0,0,0,.3-.111.762.762,0,0,0,.272-1.19c-.116-.179-.113-.242.1-.279.062-.011.119-.048.181-.062a.438.438,0,0,0,.351-.591,3.757,3.757,0,0,0-.175-.619,1.434,1.434,0,0,1,.789-1.766,1.633,1.633,0,0,1,.893-.12A4.324,4.324,0,0,0,7.932,19.5a1,1,0,0,0,.785-1.337,7.333,7.333,0,0,0-2.513-4,3.6,3.6,0,0,1-.681-.61c-.272-.347-.306-.556-.07-.9a9.534,9.534,0,0,0,.727-1.359,1.117,1.117,0,0,0-.132-1.157A5.366,5.366,0,0,0,5.208,9.1a3.032,3.032,0,0,1-.78-1.331A8.388,8.388,0,0,0,2.943,4.742,5.8,5.8,0,0,0,0,2.992C0,2.086.015,1.18,0,.275c0-.231.054-.306.272-.259.583.348,1.215.605,1.78.992a10.414,10.414,0,0,1,2.032,1.72c.286.326.524.688.817,1.006a11.652,11.652,0,0,1,.669,1.316A16.12,16.12,0,0,1,6.1,6.844a6.227,6.227,0,0,0,1.58,2.749,1.247,1.247,0,0,1,.163,1.567c-.252.424-.491.86-.735,1.292a.868.868,0,0,0,.113,1.032,7.222,7.222,0,0,0,.852.911,4.276,4.276,0,0,1,1.165,1.918c.205.727.39,1.455.622,2.173A1.483,1.483,0,0,1,8.8,20.263a6.752,6.752,0,0,1-1.754.124.521.521,0,0,0-.565.565,3.358,3.358,0,0,0,.21,1.21.747.747,0,0,1-.4,1.024c-.186.092-.176.185-.04.313a.9.9,0,0,1-.245,1.348,1.2,1.2,0,0,0-.77,1.029,2.873,2.873,0,0,0,.024.616,14.523,14.523,0,0,1,.306,1.421,4.853,4.853,0,0,1-.116,1.072,2.568,2.568,0,0,1-2.478,2.04c.035-.079.066-.162.106-.237a5.828,5.828,0,0,0,.992-2.536A4.616,4.616,0,0,0,3.965,26.331Z" transform="translate(0.003 -0.003)"/><path class="a" d="M8.74,3.914c-.294-.318-.529-.68-.817-1.006A10.434,10.434,0,0,0,5.89,1.189C5.325.805,4.693.548,4.11.2H7.086c.017.047.057.054.1.066A13.779,13.779,0,0,1,9.507,1.2a17.7,17.7,0,0,1,2.276,1.455c.287.251.579.5.86.753a13.481,13.481,0,0,1,1.442,1.581,7.5,7.5,0,0,1,1.163,1.872,9.624,9.624,0,0,0,1.09,2.024,1.458,1.458,0,0,1,.056,1.814,1.214,1.214,0,0,0,.079,1.429c.371.473.759.933,1.137,1.4a8.468,8.468,0,0,0,1.634,1.647,2.195,2.195,0,0,1,.74.633,1.1,1.1,0,0,1-.472,1.488c-.265.182-.567.318-.838.5-.226.148-.526.327-.454.619a2.2,2.2,0,0,0,.562,1.257.463.463,0,0,1,.146.353c.019.435-.31.6-.6.781-.247.156-.265.272-.007.411a1.926,1.926,0,0,1,.525.438.579.579,0,0,1-.073.966,1.282,1.282,0,0,0-.177.191.715.715,0,0,0-.089.727c.066.27.153.536.231.8a3.4,3.4,0,0,1,.051.581,1.871,1.871,0,0,1-1.108,1.669c-.04-.259-.013-.52-.04-.781a8.554,8.554,0,0,0-.78-2.532,1,1,0,0,1,.284-1.167.515.515,0,0,0-.107-.89c-.226-.149-.463-.28-.692-.425a.265.265,0,0,1-.132-.28c.022-.116.122-.128.223-.146a2.018,2.018,0,0,0,.753-.294.532.532,0,0,0,.214-.76,7.633,7.633,0,0,1-.517-1.225.532.532,0,0,1,.472-.761,2.213,2.213,0,0,0,.86-.269.823.823,0,0,0,.28-1.237,3.053,3.053,0,0,0-.388-.346c-.377-.337-.713-.716-1.093-1.052a28.92,28.92,0,0,1-2.229-1.86,1.156,1.156,0,0,1-.3-1.19c.091-.3.184-.6.284-.9a1.765,1.765,0,0,0,.01-1.242A4.02,4.02,0,0,0,13.9,8.018c-.561-.63-1.14-1.237-1.759-1.812A10.715,10.715,0,0,0,8.74,3.914Z" transform="translate(-3.838 -0.187)"/><path class="a" d="M187.513,512.061a18.437,18.437,0,0,1-.573-2.805,10.422,10.422,0,0,1,.192-4.012,4.063,4.063,0,0,1,1.765-2.823,11.363,11.363,0,0,0,3.1,4.477,9.148,9.148,0,0,1,2.531,3.453,4.436,4.436,0,0,1,.194,1.711Z" transform="translate(-174.477 -469.192)"/><path class="a" d="M135.136.2a17.671,17.671,0,0,1,2.837,1.583,16.682,16.682,0,0,1,1.3,1.142,17.757,17.757,0,0,0,1.506,1.215,2.516,2.516,0,0,1,1.1,2.116,2.293,2.293,0,0,1,0,.363c-.108.732.327,1.124.852,1.53a8.625,8.625,0,0,0,2.3,1.13,1.981,1.981,0,0,1,1.288,1.595,1.641,1.641,0,0,1-.4,1.479c-.1.112-.066.187.021.28a1.085,1.085,0,0,0,.325.22.78.78,0,0,1,.335,1.257c-.03.046-.052.1-.085.14-.112.145-.107.2.1.251a1.076,1.076,0,0,1,.794.79.491.491,0,0,1,0,.356,2.367,2.367,0,0,0,.366,2.4,4.831,4.831,0,0,1,.788,1.526,2.666,2.666,0,0,1-.579,2.323,3.61,3.61,0,0,1-2.47,1.262c-.825.105-1.659.1-2.483.2-.321.037-.636.124-.954.188a4.018,4.018,0,0,0,.86-1.058c.451,0,.9.01,1.354.006a4.052,4.052,0,0,0,2.528-.823,2.131,2.131,0,0,0,.881-1.1,1.978,1.978,0,0,0-.491-1.756,2.993,2.993,0,0,1-.555-2.655.881.881,0,0,0-.8-1.135c-.4-.072-.45-.17-.2-.512.412-.567.343-.938-.248-1.329-.09-.06-.187-.111-.274-.176a.363.363,0,0,1-.056-.629c.046-.048.095-.093.141-.14a1.521,1.521,0,0,0-.048-2.168,3.466,3.466,0,0,0-1.284-.6,5.886,5.886,0,0,1-1.886-.945,1.692,1.692,0,0,1-.808-1.252c-.015-.293.021-.588.022-.882a1.9,1.9,0,0,0-1.382-1.958,3.424,3.424,0,0,1-1.058-.5,12.207,12.207,0,0,0-4.343-2.263,11.226,11.226,0,0,0-2.876-.547l0,0c0-.06-.034-.062-.078-.059A9.713,9.713,0,0,1,130.11.2Z" transform="translate(-121.505 -0.187)"/><path class="a" d="M67.3,22.48a3.91,3.91,0,0,1-.86,1.058,1.848,1.848,0,0,1-.853.468,4.227,4.227,0,0,0,.838-1.521,3.278,3.278,0,0,0,.011-1.37A1.063,1.063,0,0,0,66,20.321c-.534-.294-.645-.455-.29-1.081.037-.066.066-.132.106-.2.369-.616.106-.936-.391-1.223-.074-.043-.167-.054-.242-.1-.171-.094-.47-.066-.479-.315-.007-.2.226-.3.384-.433a1.129,1.129,0,0,0,.548-.817c.007-.331-.259-.476-.505-.647a.845.845,0,0,1,.061-1.411,2.5,2.5,0,0,0,.522-.448.89.89,0,0,0-.093-1.455A11.514,11.514,0,0,0,63.2,10.651a4.2,4.2,0,0,1-1.337-.892A1.434,1.434,0,0,1,61.4,8.371a1.077,1.077,0,0,0-.132-.851,10.992,10.992,0,0,0-2.128-2.395A12.824,12.824,0,0,0,54.4,2.783a1.231,1.231,0,0,0-.6-.123,17.478,17.478,0,0,0-2.276-1.455A13.779,13.779,0,0,0,49.211.267c-.042-.014-.083-.02-.1-.067h5.357a9.478,9.478,0,0,0,1.378.87l.078.06,0,0a.312.312,0,0,0,.058.074A26.5,26.5,0,0,1,60.256,5a7.992,7.992,0,0,1,1.72,2.349,1.24,1.24,0,0,1,.108.878A1.124,1.124,0,0,0,62.5,9.645a8.409,8.409,0,0,0,.918.474A9.073,9.073,0,0,1,66.345,12a1.222,1.222,0,0,1,.011,1.872,6.969,6.969,0,0,0-.661.735c-.255.367-.249.446.058.755a1.018,1.018,0,0,1,.14,1.43c-.126.185-.288.347-.435.522.2.119.405.223.6.351A1.147,1.147,0,0,1,66.5,19a2.638,2.638,0,0,1-.386.522c-.144.206-.181.3.11.393a1.574,1.574,0,0,1,.883.673A2.126,2.126,0,0,1,67.3,22.48Z" transform="translate(-45.862 -0.187)"/><path class="a" d="M6.121,511.218c-.226.714-.47,1.421-.65,2.15a12.981,12.981,0,0,0-.2,3.073H4.281a21.229,21.229,0,0,1-1.048-2.282,3.274,3.274,0,0,0-.518-1.12A9.015,9.015,0,0,0,.11,510.753v-3.637c.1-.028.164.048.239.084a17.017,17.017,0,0,1,1.81,1.027A30.64,30.64,0,0,1,6.121,511.218Z" transform="translate(-0.103 -473.572)"/><path class="a" d="M2.16,406.427A17.012,17.012,0,0,0,.349,405.4c-.075-.036-.14-.112-.239-.084v-4.96c.339-.11.52-.421.776-.632a10.641,10.641,0,0,1,2.429-1.347,2.285,2.285,0,0,1,.756-.276,4.626,4.626,0,0,1,.11,1.918,5.827,5.827,0,0,1-.992,2.536c-.042.075-.071.158-.106.237A9.494,9.494,0,0,0,2.16,406.427Z" transform="translate(-0.103 -371.772)"/><path class="a" d="M.044,562.2a8.988,8.988,0,0,1,2.6,2.285,3.275,3.275,0,0,1,.518,1.12,21.229,21.229,0,0,0,1.048,2.282c-1.318,0-2.637-.005-3.955.005-.188,0-.217-.045-.216-.222C.048,565.847.044,564.023.044,562.2Z" transform="translate(-0.037 -525.019)"/><path class="a" d="M161.971,357.889a.763.763,0,0,1-.066-.384c0-.78-.034-1.561.01-2.339a19.686,19.686,0,0,1,.245-2.354l.2-.992a3.422,3.422,0,0,1,1.847-2.65,8.578,8.578,0,0,1,.78,2.532c.026.265,0,.522.04.781a2.538,2.538,0,0,1-.021.427,11.619,11.619,0,0,0-.021,3.29c.01.048.041.087-.038.125C163.937,356.813,162.994,357.426,161.971,357.889Z" transform="translate(-151.185 -326.078)"/><path class="a" d="M223.4,343.38c-.529-.013-1.058-.107-1.587-.081a1.236,1.236,0,0,0-.583.137c-.077-.268-.161-.534-.231-.8a.713.713,0,0,1,.089-.728c1.257-.066,2.487.229,3.735.277A10.4,10.4,0,0,0,223.4,343.38Z" transform="translate(-206.33 -319.283)"/><path class="a" d="M79.2,385.658c.661-.106,1.323-.239,1.989-.314a9.056,9.056,0,0,1,2.9.082,3.9,3.9,0,0,0,1.042.1l-.2.992A8.7,8.7,0,0,0,83.3,386.4a5.3,5.3,0,0,0-3.446,1.069c-.1.077-.214.146-.321.219a14.527,14.527,0,0,0-.306-1.421A2.873,2.873,0,0,1,79.2,385.658Z" transform="translate(-73.956 -359.787)"/><path class="b" d="M151.028,13.4l-.078-.06C150.994,13.338,151.032,13.341,151.028,13.4Z" transform="translate(-140.967 -12.458)"/></g></g></svg>