<svg xmlns="http://www.w3.org/2000/svg" xmlns:xlink="http://www.w3.org/1999/xlink" width="42.406" height="99.187" viewBox="0 0 42.406 99.187"><defs><style>.a,.b{stroke:#e6e6e6;}.a{fill:url(#a);}.b{fill:#fff;}</style><linearGradient id="a" x1="0.5" y1="0.793" x2="0.5" y2="0.567" gradientUnits="objectBoundingBox"><stop offset="0" stop-color="#f7c572"/><stop offset="1" stop-color="#fff"/></linearGradient></defs><g transform="translate(0.502 0.5)"><path class="a" d="M34.656,53.294A8.742,8.742,0,0,0,28.9,50.708c-.069,0-.137-.01-.207-.01H12.7c-.071,0-.141.006-.212.011a8.746,8.746,0,0,0-5.747,2.584C1.409,58.308-.778,69.719.245,87.208a3.312,3.312,0,0,0,3.3,3.118c.065,0,.131,0,.2-.006a3.312,3.312,0,0,0,3.113-3.5c-.851-14.547.8-22.3,2.648-26.15v62.108a5.118,5.118,0,0,0,10.237,0V85.409h1.919v37.37a5.118,5.118,0,0,0,10.237,0V60.673c1.85,3.849,3.5,11.6,2.648,26.148a3.312,3.312,0,0,0,3.113,3.5c.066,0,.131.006.2.006a3.312,3.312,0,0,0,3.3-3.118C42.181,69.719,39.993,58.308,34.656,53.294Z" transform="translate(0 -29.71)"/><ellipse class="b" cx="9.314" cy="9.314" rx="9.314" ry="9.314" transform="translate(11.387)"/></g></svg>